<?xml version="1.0" standalone="no"?>
<!DOCTYPE svg PUBLIC "-//W3C//DTD SVG 20010904//EN"
 "http://www.w3.org/TR/2001/REC-SVG-20010904/DTD/svg10.dtd">
<svg version="1.0" xmlns="http://www.w3.org/2000/svg"
 width="512.000000pt" height="512.000000pt" viewBox="0 0 512.000000 512.000000"
 preserveAspectRatio="xMidYMid meet">
<metadata>
Created by potrace 1.11, written by Peter Selinger 2001-2013
</metadata>
<g transform="translate(0.000000,512.000000) scale(0.100000,-0.100000)"
fill="#000000" stroke="none">
<path d="M1329 4796 c-2 -2 -38 -6 -79 -9 -304 -23 -540 -147 -721 -377 -113
-144 -173 -310 -196 -537 -10 -101 -10 -2523 0 -2628 11 -121 53 -297 77 -330
4 -5 11 -21 15 -35 24 -79 171 -261 285 -352 102 -81 272 -157 390 -174 19 -3
41 -7 49 -10 7 -2 52 -8 100 -12 110 -9 2509 -9 2616 0 157 14 285 48 402 106
183 92 354 273 437 460 35 80 72 231 84 347 12 104 10 2610 -2 2665 -4 19 -11
58 -16 85 -22 118 -40 175 -87 270 -42 86 -99 162 -173 235 -140 138 -250 203
-421 249 -167 46 -229 48 -1530 49 -674 1 -1228 0 -1230 -2z"/>
</g>
</svg>
